# xmcd CD database file
#
# Track frame offsets:
#	150
#	1687
#	18710
#	27437
#	44072
#	53495
#	58550
#	65030
#	85242
#	94877
#	108117
#	125030
#
# Disc length: 1759 seconds
#
# Revision: 6
# Processed by: cddbd v1.5.2PL0 Copyright (c) Steve Scherf et al.
# Submitted via: CDex 1.70beta2
#
DISCID=9d06dd0c
DTITLE=YMO - X∞MULTIPLIES -増殖-
DYEAR=1980
DGENRE=Techno
TTITLE0=JINGLE "Y.M.O."
TTITLE1=NICE AGE
TTITLE2=SNAKEMAN SHOW 「KDD」
TTITLE3=TIGHTEN UP (Japanese Gentlemen Stand Up Please!)
TTITLE4=SNAKEMAN SHOW 「ミスター大平」
TTITLE5=HERE WE GO AGAIN ~ TIGHTEN UP
TTITLE6=SNAKEMAN SHOW 「ここは警察じゃないよ」
TTITLE7=CITIZENS OF SCIENCE
TTITLE8=SNAKEMAN SHOW 「林家万平」
TTITLE9=MULTIPLIES
TTITLE10=SNAKEMAN SHOW 「若い山彦」
TTITLE11=THE END OF ASIA
EXTD=YEAR: 1980
EXTT0=
EXTT1=
EXTT2=
EXTT3=
EXTT4=
EXTT5=
EXTT6=
EXTT7=
EXTT8=
EXTT9=
EXTT10=
EXTT11=
PLAYORDER=
